<svg xmlns="http://www.w3.org/2000/svg" width="18" height="16" fill="none" viewBox="0 0 18 16">
  <path fill="#38A0B9" d="M17 5.78V1c0-.25-.22-1-1-1-.25 0-.47.1-.63.25L12.7 2.38A7.5 7.5 0 018 4H2a2 2 0 00-2 2v3c0 1.13.88 2 2 2l-.03 1c0 1.25.28 2.44.81 3.47.16.34.5.53.88.53h3.3c.82 0 1.32-.9.82-1.56-.5-.69-.81-1.5-.81-2.44 0-.34.06-.66.12-1H8c1.69 0 3.38.6 4.69 1.66l2.69 2.12c.12.13.4.22.59.22.78 0 1-.69 1-1V9.25c.62-.34 1-1 1-1.75A1.92 1.92 0 0017 5.78zM6.97 15H3.66a7 7 0 01-.7-2.97v-1L3 11h3.1a4.82 4.82 0 00.88 4zM2 10c-.56 0-1-.44-1-1V6a1 1 0 011-1h6v5H2zm14 3.97c0 .03-.03.03-.03.03l-2.66-2.13A8.5 8.5 0 009 10.1V4.94a8.78 8.78 0 004.31-1.78l2.66-2.13H16v12.94z"/>
</svg>