<svg xmlns="http://www.w3.org/2000/svg" width="16" height="12" fill="none" viewBox="0 0 16 12">
  <path fill="#58C1DB" d="M15.75 11H1V.25A.27.27 0 00.75 0h-.5A.25.25 0 000 .25V11.5c0 .28.22.5.5.5h15.25c.13 0 .25-.1.25-.25v-.5a.27.27 0 00-.25-.25zM3.06 6.25c-.1.1-.1.25 0 .34l.35.35c.09.1.25.1.34 0l2.28-2.25L8.7 7.34c.19.2.5.2.69 0l2.93-2.93 1.38 1.37c.15.16.34.22.53.22.4 0 .78-.28.78-.75V1.53a.55.55 0 00-.53-.53h-3.72c-.69 0-1.03.84-.53 1.31l1.37 1.4-2.56 2.57-2.62-2.66c-.22-.18-.54-.18-.72 0L3.06 6.25zM11.31 2H14v2.69L11.31 2z"/>
</svg>