<svg xmlns="http://www.w3.org/2000/svg" width="19" height="17" fill="none" viewBox="0 0 19 17">
  <path fill="#58C1DB" d="M8.13 16c.09.03.21-.03.21-.13L12.75.47c.03-.1-.03-.19-.13-.22l-.78-.22c-.09-.03-.18.03-.21.13l-4.41 15.4c-.03.1.03.19.12.22l.79.22zm-2.38-3.9l.6-.66c.06-.06.06-.16-.04-.22L2.53 8l3.78-3.19c.1-.06.1-.15.03-.22l-.59-.65c-.03-.07-.16-.07-.22 0L1.03 7.9a.15.15 0 000 .21l4.5 3.97c.06.07.19.07.22 0zm8.69 0l4.5-3.98a.15.15 0 000-.21l-4.5-3.97a.15.15 0 00-.22 0l-.6.65c-.06.07-.03.16.04.22L17.44 8l-3.78 3.22c-.07.06-.1.15-.04.22l.6.65c.03.07.15.07.22 0z"/>
</svg>