<svg xmlns="http://www.w3.org/2000/svg" width="20" height="14" fill="none" viewBox="0 0 20 14">
  <path fill="#58C1DB" d="M17 6c1.38 0 2.5-1.1 2.5-2.5A2.5 2.5 0 0017 1c-1.4 0-2.5 1.13-2.5 2.5C14.5 4.9 15.6 6 17 6zm0-4c.81 0 1.5.69 1.5 1.5 0 .84-.69 1.5-1.5 1.5a1.5 1.5 0 010-3zm-7 5c1.9 0 3.5-1.56 3.5-3.5C13.5 1.6 11.9 0 10 0a3.5 3.5 0 100 7zm0-6a2.5 2.5 0 012.5 2.5C12.5 4.9 11.37 6 10 6 8.6 6 7.5 4.9 7.5 3.5 7.5 2.12 8.6 1 10 1zm7.63 6h-1.25c-.5 0-.94.16-1.32.4.31.22.56.44.81.72.16-.06.32-.12.5-.12h1.25c.75 0 1.38.69 1.38 1.5 0 .28.22.5.5.5.25 0 .5-.22.5-.5C20 8.12 18.9 7 17.62 7zM3 6c1.38 0 2.5-1.1 2.5-2.5A2.5 2.5 0 003 1C1.6 1 .5 2.13.5 3.5.5 4.9 1.6 6 3 6zm0-4c.81 0 1.5.69 1.5 1.5C4.5 4.34 3.81 5 3 5a1.5 1.5 0 010-3zm9.5 5.63c-1.06 0-1.31.37-2.5.37-1.22 0-1.47-.38-2.53-.38-1.13 0-2.22.54-2.88 1.47-.37.6-.59 1.29-.59 2.04v1.37c0 .84.66 1.5 1.5 1.5h9c.81 0 1.5-.66 1.5-1.5v-1.38a3.8 3.8 0 00-.63-2.03 3.51 3.51 0 00-2.87-1.46zM15 12.5c0 .28-.25.5-.5.5h-9a.5.5 0 01-.5-.5v-1.38a2.43 2.43 0 012.47-2.5c.87 0 1.19.38 2.53.38 1.34 0 1.63-.38 2.5-.38a2.43 2.43 0 012.47 2.5v1.38H15zM4.9 7.4A2.3 2.3 0 003.63 7H2.38A2.44 2.44 0 000 9.5c0 .28.22.5.5.5.25 0 .5-.22.5-.5C1 8.69 1.6 8 2.38 8h1.25c.15 0 .3.06.46.13.25-.29.5-.5.82-.72z"/>
</svg>