<svg xmlns="http://www.w3.org/2000/svg" fill="none" viewBox="0 0 10.5 12">
  <path fill="#000" d="M4.05 0c-.35 0-.77.26-.96.56l-.8 1.31H.38a.39.39 0 0 0-.37.38v.38c0 .2.16.37.38.37h.37v7.88c0 .63.5 1.12 1.13 1.12h6.75c.6 0 1.12-.5 1.12-1.13V3h.38c.18 0 .37-.16.37-.38v-.37a.4.4 0 0 0-.38-.38H8.19l-.8-1.3C7.2.25 6.78 0 6.42 0Zm.08 1.13h2.22c.03 0 .1.04.12.07l.4.68H3.6L4 1.2c.02-.03.1-.07.12-.07ZM1.88 3h6.75v7.88H1.87Zm1.78 1.13a.28.28 0 0 0-.29.28v5.06c0 .16.12.28.29.28h.56c.14 0 .28-.12.28-.28V4.4a.3.3 0 0 0-.28-.29Zm2.62 0A.28.28 0 0 0 6 4.4v5.06c0 .16.12.28.28.28h.56c.14 0 .29-.12.29-.28V4.4a.3.3 0 0 0-.29-.29Z"/>
</svg>