<svg xmlns="http://www.w3.org/2000/svg" fill="none" viewBox="0 0 20 20">
  <path fill="#fff" d="M19.69 9.69A9.74 9.74 0 0 0 10 0 9.71 9.71 0 0 0 .31 9.69 9.69 9.69 0 0 0 10 19.37a9.71 9.71 0 0 0 9.69-9.68zM10.23 3.2c2.23 0 4.57 1.72 4.57 3.99 0 3.04-3.24 3.08-3.24 4.18v.04a.47.47 0 0 1-.47.47H8.91a.45.45 0 0 1-.47-.47v-.16c0-1.6 1.2-2.23 2.1-2.73.79-.43 1.3-.75 1.3-1.33 0-.78-1.02-1.3-1.8-1.3-1.06 0-1.52.52-2.23 1.42a.49.49 0 0 1-.66.07L5.78 6.37c-.2-.16-.23-.43-.08-.67a5.03 5.03 0 0 1 4.53-2.5zM10 12.9a1.8 1.8 0 1 1 0 3.6 1.77 1.77 0 0 1-1.8-1.81c0-.98.78-1.8 1.8-1.8z"/>
</svg>