<svg xmlns="http://www.w3.org/2000/svg" fill="none" viewBox="0 0 145 38">
  <path fill="#38A0B9" fill-rule="evenodd" d="M29.27 7.9a16.43 16.43 0 0 1 0 23.46 17 17 0 0 1-23.81 0 18.19 18.19 0 0 1 0-25.98 18.83 18.83 0 0 1 26.36 0l-.43.42a18.22 18.22 0 0 0-25.5 0 17.6 17.6 0 0 0 0 25.14l.84-.84a16.43 16.43 0 0 1 0-23.46 17 17 0 0 1 23.81 0 18.19 18.19 0 0 1 0 25.98 18.83 18.83 0 0 1-26.36 0l.43-.42a18.22 18.22 0 0 0 25.5 0 17.6 17.6 0 0 0 0-25.14l-.84.84Zm-7.66 7.54a5.87 5.87 0 0 1 0 8.38 6.07 6.07 0 0 1-8.5 0l1.28-1.26a5.87 5.87 0 0 1 0-8.38 6.08 6.08 0 0 1 8.5 0l-1.28 1.26Z" clip-rule="evenodd"/>
  <path fill="#fff" d="M54.47 15.36h1.67c-.08-2.14-2.06-3.74-4.8-3.74-2.71 0-4.84 1.58-4.84 3.97 0 1.9 1.38 3.04 3.6 3.68l1.74.5c1.5.41 2.83.94 2.83 2.35 0 1.55-1.5 2.58-3.47 2.58-1.69 0-3.18-.75-3.32-2.36h-1.77c.16 2.33 2.05 3.9 5.1 3.9 3.26 0 5.12-1.8 5.12-4.1 0-2.65-2.52-3.5-3.99-3.9l-1.44-.38c-1.05-.28-2.74-.83-2.74-2.36 0-1.36 1.24-2.35 3.13-2.35 1.72 0 3.02.81 3.18 2.21Zm9.28 0h-2.27v-2.54h-1.63v2.54h-1.61v1.39h1.6v6.65c0 1.85 1.5 2.74 2.89 2.74.6 0 1-.11 1.22-.2l-.34-1.46c-.14.02-.36.08-.72.08-.72 0-1.41-.22-1.41-1.6v-6.21h2.27v-1.39Zm6.86 10.86c2.88 0 4.82-2.19 4.82-5.48 0-3.33-1.94-5.51-4.82-5.51-2.88 0-4.82 2.18-4.82 5.5 0 3.3 1.94 5.5 4.82 5.5Zm0-1.47c-2.19 0-3.18-1.88-3.18-4.01s1-4.05 3.18-4.05c2.19 0 3.19 1.91 3.19 4.05 0 2.13-1 4.01-3.19 4.01ZM78.12 26h1.64v-6.73c0-1.43 1.13-2.5 2.68-2.5.41 0 .72.08.94.2l.56-1.39a2.28 2.28 0 0 0-1.36-.38c-1.29 0-2.39.72-2.77 1.77h-.11v-1.6h-1.58V26Zm8.9 3.96c1.48 0 2.52-.78 3.13-2.4l4.53-12.17-1.78-.03-2.94 8.48h-.11l-2.94-8.48h-1.77l3.93 10.7-.3.83c-.58 1.59-1.33 1.74-2.52 1.44l-.42 1.44c.17.08.64.2 1.2.2Zm14.65-14.6h-2.28v-2.54h-1.63v2.54h-1.6v1.39h1.6v6.65c0 1.85 1.5 2.74 2.88 2.74.61 0 1-.11 1.22-.2l-.33-1.46c-.14.02-.36.08-.72.08-.72 0-1.42-.22-1.42-1.6v-6.21h2.28v-1.39Zm7 10.86c2.15 0 3.73-1.08 4.23-2.68l-1.58-.45c-.41 1.11-1.37 1.66-2.66 1.66-1.91 0-3.24-1.24-3.31-3.51h7.72v-.7c0-3.96-2.36-5.32-4.57-5.32-2.88 0-4.8 2.28-4.8 5.54 0 3.27 1.89 5.46 4.96 5.46Zm-3.32-6.4c.1-1.65 1.28-3.13 3.15-3.13 1.77 0 2.9 1.33 2.9 3.13h-6.05Zm10.4-8v11.85c0 1.52.77 2.41 2.33 2.41.47 0 .93-.08 1.21-.16l-.33-1.42c-.16.05-.3.1-.69.12-.72.02-.89-.36-.89-1.39V11.82h-1.63Zm5.53 0v11.85c0 1.52.77 2.41 2.32 2.41.47 0 .94-.08 1.22-.16l-.33-1.42c-.16.05-.3.1-.7.12-.71.02-.88-.36-.88-1.39V11.82h-1.63Zm9.7 14.4c2.16 0 3.74-1.08 4.24-2.68l-1.58-.45c-.42 1.11-1.38 1.66-2.66 1.66-1.92 0-3.24-1.24-3.32-3.51h7.72v-.7c0-3.96-2.35-5.32-4.57-5.32-2.88 0-4.8 2.28-4.8 5.54 0 3.27 1.9 5.46 4.97 5.46Zm-3.32-6.4c.11-1.65 1.28-3.13 3.15-3.13 1.77 0 2.9 1.33 2.9 3.13h-6.05Zm10.4 6.18h1.64v-6.73c0-1.43 1.13-2.5 2.68-2.5.41 0 .72.08.95.2l.55-1.39a2.28 2.28 0 0 0-1.36-.38c-1.29 0-2.39.72-2.77 1.77h-.1v-1.6h-1.59V26Z"/>
</svg>