<svg xmlns="http://www.w3.org/2000/svg" width="18" height="14" fill="none" viewBox="0 0 18 14">
  <path fill="#58C1DB" d="M11.25 9h3.5c.13 0 .25-.1.25-.25v-.5a.27.27 0 00-.25-.25h-3.5a.25.25 0 00-.25.25v.5c0 .16.1.25.25.25zm0-2h3.5c.13 0 .25-.1.25-.25v-.5a.27.27 0 00-.25-.25h-3.5a.25.25 0 00-.25.25v.5c0 .16.1.25.25.25zm0 4h3.5c.13 0 .25-.1.25-.25v-.5a.27.27 0 00-.25-.25h-3.5a.25.25 0 00-.25.25v.5c0 .16.1.25.25.25zM6 10c1.38 0 2.5-1.1 2.5-2.5A2.5 2.5 0 006 5C4.6 5 3.5 6.13 3.5 7.5 3.5 8.9 4.6 10 6 10zm0-4c.81 0 1.5.69 1.5 1.5C7.5 8.34 6.81 9 6 9a1.5 1.5 0 010-3zm10-6H2a2 2 0 00-2 2v10c0 1.13.88 2 2 2h14a2 2 0 002-2V2c0-1.1-.9-2-2-2zM8.5 13h-5v-.47c0-.22.06-.4.19-.6.15-.27.47-.4.84-.4.38 0 .66.22 1.47.22.81 0 1.06-.22 1.44-.22.37 0 .68.16.87.4.13.2.19.38.19.6V13zm8.5-1a1 1 0 01-1 1H9.5v-.47c0-.44-.16-.81-.38-1.15a2.03 2.03 0 00-1.68-.88c-.6 0-.75.22-1.44.22-.72 0-.88-.22-1.47-.22-.66 0-1.31.31-1.69.88a2.1 2.1 0 00-.34 1.15V13H2c-.56 0-1-.44-1-1V4h16v8zm0-9H1V2a1 1 0 011-1h14c.53 0 1 .47 1 1v1z"/>
</svg>