<svg xmlns="http://www.w3.org/2000/svg" fill="none" viewBox="0 0 13.471 8.76">
  <path class="asc" fill="#f00" d="M8.378 3.79 9.667 2.5v5.781c0 .274.195.469.469.469h.469a.463.463 0 0 0 .468-.469V2.5l1.27 1.29a.484.484 0 0 0 .664 0l.332-.333a.484.484 0 0 0 0-.664L10.683.156a.428.428 0 0 0-.645 0L7.382 2.793a.484.484 0 0 0 0 .664l.332.332a.484.484 0 0 0 .664 0z"/>
  <path class="desc" fill="#0f0" d="m5.093 4.98-1.27 1.29V.469A.475.475 0 0 0 3.354 0h-.468a.463.463 0 0 0-.469.469v5.8L1.127 4.98a.484.484 0 0 0-.663 0l-.332.332a.484.484 0 0 0 0 .665l2.656 2.636a.428.428 0 0 0 .645 0l2.656-2.636a.484.484 0 0 0 0-.665l-.332-.332a.484.484 0 0 0-.664 0z"/>
</svg>