<svg xmlns="http://www.w3.org/2000/svg" width="14" height="16" fill="none" viewBox="0 0 14 16">
  <path fill="#38A0B9" d="M11.13 5c.18 0 .37-.16.37-.38v-.25a.4.4 0 00-.38-.37H5.88a.38.38 0 00-.38.38v.25c0 .21.16.37.38.37h5.25zm.37 1.63v-.25a.4.4 0 00-.38-.38H5.88a.38.38 0 00-.38.38v.25c0 .21.16.37.38.37h5.25c.18 0 .37-.16.37-.38zm2 8.37a5.5 5.5 0 01.03-2.03c.25-.13.47-.4.47-.72V.75c0-.4-.34-.75-.75-.75H2.5C1.1 0 0 1.13 0 2.5v11C0 14.9 1.1 16 2.5 16h11.13c.18 0 .37-.16.37-.38v-.24a.4.4 0 00-.38-.38h-.12zM4 12V1h9v11H4zm-3 .5v-10C1 1.69 1.66 1 2.5 1H3v11h-.5c-.56 0-1.1.19-1.5.5zM12.63 15H2.5c-2 0-2-2 0-2h10.13c-.1.6-.1 1.38 0 2z"/>
</svg>