<svg xmlns="http://www.w3.org/2000/svg" width="16" height="16" fill="none" viewBox="0 0 16 16">
  <path fill="#58C1DB" d="M8 10.625c-.5 0-.875.406-.875.875 0 .5.375.875.875.875a.873.873 0 00.875-.875.894.894 0 00-.875-.875zm.219-.75a.361.361 0 00.375-.375c0-1.344 2.437-1.25 2.437-3.344 0-1.593-1.437-2.531-3.062-2.531-1.407 0-2.188.563-2.844 1.406-.125.188-.094.407.094.532l.406.312a.39.39 0 00.5-.094c.469-.593.938-.906 1.844-.906 1.25 0 1.812.656 1.812 1.281 0 1.344-2.437 1.157-2.437 3.344a.38.38 0 00.375.375h.5zM8 1.25c3.688 0 6.75 3.031 6.75 6.75 0 3.75-3.031 6.75-6.75 6.75-3.75 0-6.75-3-6.75-6.75 0-3.719 3-6.75 6.75-6.75zm0-1C3.719.25.25 3.75.25 8A7.749 7.749 0 008 15.75c4.25 0 7.75-3.469 7.75-7.75 0-4.25-3.5-7.75-7.75-7.75z"/>
</svg>